%TF.GenerationSoftware,KiCad,Pcbnew,9.0.8+dfsg-1*%
%TF.CreationDate,2026-09-27T12:25:28-04:00*%
%TF.ProjectId,lsm6dsv32x_breakout,6c736d36-6473-4763-9332-785f62726561,1.0*%
%TF.SameCoordinates,Original*%
%TF.FileFunction,Copper,L2,Bot*%
%TF.FilePolarity,Positive*%
%FSLAX46Y46*%
G04 Gerber Fmt 4.6, Leading zero omitted, Abs format (unit mm)*
G04 Created by KiCad (PCBNEW 9.0.8+dfsg-1) date 2026-09-27 12:25:28*
%MOMM*%
%LPD*%
G01*
G04 APERTURE LIST*
%TA.AperFunction,ComponentPad*%
%ADD10R,1.700000X1.700000*%
%TD*%
%TA.AperFunction,ComponentPad*%
%ADD11C,1.700000*%
%TD*%
%TA.AperFunction,ViaPad*%
%ADD12C,0.500000*%
%TD*%
%TA.AperFunction,Conductor*%
%ADD13C,0.300000*%
%TD*%
%TA.AperFunction,Conductor*%
%ADD14C,0.200000*%
%TD*%
G04 APERTURE END LIST*
D10*
%TO.P,J1,1*%
%TO.N,+3V3*%
X1270000Y1270000D03*
D11*
%TO.P,J1,2*%
%TO.N,GND*%
X3810000Y1270000D03*
%TO.P,J1,3*%
%TO.N,/INT2*%
X6350000Y1270000D03*
%TO.P,J1,4*%
%TO.N,/CS*%
X8890000Y1270000D03*
%TO.P,J1,5*%
%TO.N,/SCL*%
X11430000Y1270000D03*
%TO.P,J1,6*%
%TO.N,/SDA*%
X13970000Y1270000D03*
%TO.P,J1,7*%
%TO.N,/SDO*%
X16510000Y1270000D03*
%TO.P,J1,8*%
%TO.N,/INT1*%
X19050000Y1270000D03*
%TD*%
D12*
%TO.N,GND*%
X7400000Y6300000D03*
X13400000Y4700000D03*
X15400000Y6300000D03*
%TO.N,+3V3*%
X14750000Y4700000D03*
X12400000Y6300000D03*
%TO.N,/SCL*%
X5700000Y2850000D03*
%TO.N,/SDA*%
X5700000Y3800000D03*
%TD*%
D13*
%TO.N,+3V3*%
X12400000Y6300000D02*
X14750000Y4700000D01*
D14*
%TO.N,/SCL*%
X11430000Y2320000D02*
X11430000Y1270000D01*
X5700000Y2850000D02*
X10900000Y2850000D01*
X10900000Y2850000D02*
X11430000Y2320000D01*
%TO.N,/SDA*%
X13970000Y2930000D02*
X13970000Y1270000D01*
X5700000Y3800000D02*
X13100000Y3800000D01*
X13100000Y3800000D02*
X13970000Y2930000D01*
%TD*%
%TA.AperFunction,Conductor*%
%TO.N,GND*%
G36*
X1295327Y10181093D02*
G01*
X1331291Y10131593D01*
X1331291Y10070407D01*
X1295327Y10020907D01*
X1283804Y10013690D01*
X1188870Y9962948D01*
X1188860Y9962941D01*
X885790Y9714219D01*
X885781Y9714210D01*
X637059Y9411140D01*
X637052Y9411130D01*
X452242Y9065373D01*
X452240Y9065368D01*
X338428Y8690182D01*
X338427Y8690176D01*
X300000Y8300004D01*
X300000Y8299997D01*
X338427Y7909825D01*
X338428Y7909820D01*
X452240Y7534634D01*
X452242Y7534629D01*
X637052Y7188872D01*
X637058Y7188863D01*
X637060Y7188860D01*
X740781Y7062476D01*
X885781Y6885792D01*
X885790Y6885783D01*
X1027136Y6769784D01*
X1188859Y6637061D01*
X1188863Y6637059D01*
X1188870Y6637054D01*
X1509333Y6465764D01*
X1534633Y6452241D01*
X1796007Y6372955D01*
X1909818Y6338430D01*
X1909823Y6338429D01*
X2299997Y6300000D01*
X2300000Y6300000D01*
X2300003Y6300000D01*
X2690175Y6338429D01*
X2690180Y6338430D01*
X2759009Y6359309D01*
X11949500Y6359309D01*
X11949500Y6240691D01*
X11976574Y6139649D01*
X11980202Y6126110D01*
X12039507Y6023392D01*
X12039509Y6023390D01*
X12039511Y6023387D01*
X12123387Y5939511D01*
X12123389Y5939510D01*
X12123391Y5939508D01*
X12226110Y5880203D01*
X12226111Y5880203D01*
X12226114Y5880201D01*
X12340691Y5849500D01*
X12408380Y5849500D01*
X12464096Y5832333D01*
X14214318Y4640693D01*
X14288113Y4590450D01*
X14325573Y4542072D01*
X14328023Y4534241D01*
X14330200Y4526115D01*
X14330202Y4526111D01*
X14389507Y4423392D01*
X14389509Y4423390D01*
X14389511Y4423387D01*
X14473387Y4339511D01*
X14473389Y4339510D01*
X14473391Y4339508D01*
X14576110Y4280203D01*
X14576111Y4280203D01*
X14576114Y4280201D01*
X14690691Y4249500D01*
X14690693Y4249500D01*
X14809307Y4249500D01*
X14809309Y4249500D01*
X14923886Y4280201D01*
X14923888Y4280203D01*
X14923890Y4280203D01*
X15026608Y4339508D01*
X15026608Y4339509D01*
X15026613Y4339511D01*
X15110489Y4423387D01*
X15169799Y4526114D01*
X15200500Y4640691D01*
X15200500Y4759309D01*
X15169799Y4873886D01*
X15169797Y4873889D01*
X15169797Y4873891D01*
X15110492Y4976609D01*
X15110490Y4976611D01*
X15110489Y4976613D01*
X15026613Y5060489D01*
X15026610Y5060491D01*
X15026608Y5060493D01*
X14923889Y5119798D01*
X14923890Y5119798D01*
X14910351Y5123426D01*
X14809309Y5150500D01*
X14809307Y5150500D01*
X14741618Y5150500D01*
X14685902Y5167667D01*
X12861887Y6409550D01*
X12824427Y6457928D01*
X12821975Y6465764D01*
X12819799Y6473885D01*
X12819797Y6473889D01*
X12760492Y6576609D01*
X12760490Y6576611D01*
X12760489Y6576613D01*
X12676613Y6660489D01*
X12676610Y6660491D01*
X12676608Y6660493D01*
X12573889Y6719798D01*
X12573890Y6719798D01*
X12560351Y6723426D01*
X12459309Y6750500D01*
X12340691Y6750500D01*
X12270567Y6731711D01*
X12226109Y6719798D01*
X12123391Y6660493D01*
X12039507Y6576609D01*
X11980202Y6473891D01*
X11974402Y6452244D01*
X11949500Y6359309D01*
X2759009Y6359309D01*
X3065366Y6452241D01*
X3066002Y6452582D01*
X3066989Y6453108D01*
X3411128Y6637054D01*
X3411131Y6637057D01*
X3411140Y6637061D01*
X3714213Y6885787D01*
X3962939Y7188860D01*
X3962943Y7188869D01*
X3962946Y7188872D01*
X4147756Y7534629D01*
X4147759Y7534634D01*
X4261570Y7909820D01*
X4261571Y7909825D01*
X4300000Y8299997D01*
X4300000Y8300004D01*
X4261571Y8690177D01*
X4261570Y8690182D01*
X4227045Y8803993D01*
X4147759Y9065367D01*
X4147756Y9065373D01*
X3962946Y9411130D01*
X3962941Y9411137D01*
X3962939Y9411141D01*
X3724544Y9701626D01*
X3714217Y9714210D01*
X3714208Y9714219D01*
X3483619Y9903458D01*
X3411140Y9962940D01*
X3411137Y9962942D01*
X3411128Y9962948D01*
X3316195Y10013690D01*
X3273788Y10057795D01*
X3265405Y10118404D01*
X3294247Y10172364D01*
X3349299Y10199066D01*
X3362863Y10200000D01*
X16957136Y10200000D01*
X17015327Y10181093D01*
X17051291Y10131593D01*
X17051291Y10070407D01*
X17015327Y10020907D01*
X17003804Y10013690D01*
X16908870Y9962948D01*
X16908860Y9962941D01*
X16605790Y9714219D01*
X16605781Y9714210D01*
X16357059Y9411140D01*
X16357052Y9411130D01*
X16172242Y9065373D01*
X16172240Y9065368D01*
X16058428Y8690182D01*
X16058427Y8690176D01*
X16020000Y8300004D01*
X16020000Y8299997D01*
X16058427Y7909825D01*
X16058428Y7909820D01*
X16172240Y7534634D01*
X16172242Y7534629D01*
X16357052Y7188872D01*
X16357058Y7188863D01*
X16357060Y7188860D01*
X16460781Y7062476D01*
X16605781Y6885792D01*
X16605790Y6885783D01*
X16747136Y6769784D01*
X16908859Y6637061D01*
X16908863Y6637059D01*
X16908870Y6637054D01*
X17229333Y6465764D01*
X17254633Y6452241D01*
X17516007Y6372955D01*
X17629818Y6338430D01*
X17629823Y6338429D01*
X18019997Y6300000D01*
X18020000Y6300000D01*
X18020003Y6300000D01*
X18410175Y6338429D01*
X18410180Y6338430D01*
X18785366Y6452241D01*
X18909333Y6518503D01*
X19131128Y6637054D01*
X19131131Y6637057D01*
X19131140Y6637061D01*
X19434213Y6885787D01*
X19682939Y7188860D01*
X19682943Y7188869D01*
X19682946Y7188872D01*
X19867756Y7534629D01*
X19867759Y7534634D01*
X19981570Y7909820D01*
X19981571Y7909825D01*
X20020000Y8299997D01*
X20020000Y8300004D01*
X19981571Y8690177D01*
X19981570Y8690182D01*
X19947045Y8803993D01*
X19867759Y9065367D01*
X19867756Y9065373D01*
X19682946Y9411130D01*
X19682941Y9411137D01*
X19682939Y9411141D01*
X19444544Y9701626D01*
X19434217Y9714210D01*
X19434208Y9714219D01*
X19203619Y9903458D01*
X19131140Y9962940D01*
X19131137Y9962942D01*
X19131128Y9962948D01*
X19036195Y10013690D01*
X18993788Y10057795D01*
X18985405Y10118404D01*
X19014247Y10172364D01*
X19069299Y10199066D01*
X19082863Y10200000D01*
X19818395Y10200000D01*
X19821624Y10199947D01*
X19874156Y10198233D01*
X19896546Y10194914D01*
X19999582Y10167306D01*
X20023455Y10157416D01*
X20114403Y10104907D01*
X20134907Y10089175D01*
X20209174Y10014908D01*
X20224906Y9994404D01*
X20277414Y9903458D01*
X20287305Y9879581D01*
X20314912Y9776549D01*
X20318232Y9754156D01*
X20319947Y9701626D01*
X20320000Y9698396D01*
X20320000Y501605D01*
X20319947Y498376D01*
X20319947Y498375D01*
X20318232Y445845D01*
X20314912Y423452D01*
X20287305Y320420D01*
X20277414Y296543D01*
X20224906Y205597D01*
X20209174Y185093D01*
X20134907Y110826D01*
X20114403Y95094D01*
X20023457Y42586D01*
X19999580Y32695D01*
X19896548Y5088D01*
X19874155Y1768D01*
X19823802Y125D01*
X19821623Y53D01*
X19818395Y0D01*
X501605Y0D01*
X498376Y53D01*
X496095Y128D01*
X445844Y1768D01*
X423451Y5088D01*
X320419Y32695D01*
X296538Y42588D01*
X293838Y44147D01*
X252899Y89618D01*
X246506Y150468D01*
X277101Y203455D01*
X332998Y228339D01*
X362658Y226978D01*
X400244Y219501D01*
X400250Y219501D01*
X400252Y219500D01*
X400253Y219500D01*
X2139747Y219500D01*
X2139748Y219500D01*
X2198231Y231133D01*
X2264552Y275448D01*
X2308867Y341769D01*
X2320500Y400252D01*
X2320500Y1373419D01*
X2760000Y1373419D01*
X2760000Y1166582D01*
X2800349Y963728D01*
X2879501Y772639D01*
X2982183Y618963D01*
X3379269Y1016050D01*
X3409901Y962993D01*
X3502993Y869901D01*
X3556046Y839271D01*
X3158961Y442185D01*
X3312638Y339502D01*
X3503727Y260350D01*
X3706581Y220001D01*
X3706586Y220000D01*
X3913414Y220000D01*
X3913418Y220001D01*
X4116272Y260350D01*
X4307360Y339502D01*
X4461037Y442185D01*
X4063952Y839270D01*
X4117007Y869901D01*
X4210099Y962993D01*
X4240730Y1016048D01*
X4637815Y618963D01*
X4740498Y772640D01*
X4819650Y963728D01*
X4859999Y1166582D01*
X4860000Y1166587D01*
X4860000Y1373415D01*
X4859999Y1373418D01*
X4859989Y1373468D01*
X5299500Y1373468D01*
X5299500Y1166533D01*
X5339869Y963582D01*
X5419058Y772403D01*
X5419059Y772402D01*
X5534023Y600345D01*
X5680345Y454023D01*
X5852402Y339059D01*
X6043580Y259870D01*
X6246535Y219500D01*
X6246536Y219500D01*
X6453464Y219500D01*
X6453465Y219500D01*
X6656420Y259870D01*
X6847598Y339059D01*
X7019655Y454023D01*
X7165977Y600345D01*
X7280941Y772402D01*
X7360130Y963580D01*
X7400500Y1166535D01*
X7400500Y1373465D01*
X7400499Y1373468D01*
X7839500Y1373468D01*
X7839500Y1166533D01*
X7879869Y963582D01*
X7959058Y772403D01*
X7959059Y772402D01*
X8074023Y600345D01*
X8220345Y454023D01*
X8392402Y339059D01*
X8583580Y259870D01*
X8786535Y219500D01*
X8786536Y219500D01*
X8993464Y219500D01*
X8993465Y219500D01*
X9196420Y259870D01*
X9387598Y339059D01*
X9559655Y454023D01*
X9705977Y600345D01*
X9820941Y772402D01*
X9900130Y963580D01*
X9940500Y1166535D01*
X9940500Y1373465D01*
X9900130Y1576420D01*
X9820941Y1767598D01*
X9705977Y1939655D01*
X9559655Y2085977D01*
X9559651Y2085980D01*
X9387597Y2200942D01*
X9196418Y2280131D01*
X8993467Y2320500D01*
X8993465Y2320500D01*
X8786535Y2320500D01*
X8786532Y2320500D01*
X8583581Y2280131D01*
X8392402Y2200942D01*
X8220348Y2085980D01*
X8074020Y1939652D01*
X7959058Y1767598D01*
X7879869Y1576419D01*
X7839500Y1373468D01*
X7400499Y1373468D01*
X7360130Y1576420D01*
X7280941Y1767598D01*
X7165977Y1939655D01*
X7019655Y2085977D01*
X7019651Y2085980D01*
X6847597Y2200942D01*
X6656418Y2280131D01*
X6453467Y2320500D01*
X6453465Y2320500D01*
X6246535Y2320500D01*
X6246532Y2320500D01*
X6043581Y2280131D01*
X5852402Y2200942D01*
X5680348Y2085980D01*
X5534020Y1939652D01*
X5419058Y1767598D01*
X5339869Y1576419D01*
X5299500Y1373468D01*
X4859989Y1373468D01*
X4819650Y1576273D01*
X4740498Y1767362D01*
X4637815Y1921039D01*
X4240729Y1523954D01*
X4210099Y1577007D01*
X4117007Y1670099D01*
X4063950Y1700731D01*
X4461037Y2097817D01*
X4307361Y2200499D01*
X4116272Y2279651D01*
X3913418Y2320000D01*
X3706581Y2320000D01*
X3503727Y2279651D01*
X3312638Y2200499D01*
X3158961Y2097817D01*
X3556047Y1700731D01*
X3502993Y1670099D01*
X3409901Y1577007D01*
X3379269Y1523953D01*
X2982183Y1921039D01*
X2879501Y1767362D01*
X2800349Y1576273D01*
X2760000Y1373419D01*
X2320500Y1373419D01*
X2320500Y2139748D01*
X2308867Y2198231D01*
X2264552Y2264552D01*
X2264548Y2264555D01*
X2198233Y2308866D01*
X2198231Y2308867D01*
X2198228Y2308868D01*
X2198227Y2308868D01*
X2139758Y2320499D01*
X2139748Y2320500D01*
X400252Y2320500D01*
X400251Y2320500D01*
X400241Y2320499D01*
X341772Y2308868D01*
X341766Y2308866D01*
X275451Y2264555D01*
X275445Y2264549D01*
X231134Y2198234D01*
X231132Y2198228D01*
X219501Y2139759D01*
X219500Y2139747D01*
X219500Y400250D01*
X226978Y362657D01*
X225209Y347715D01*
X228338Y332999D01*
X221703Y318096D01*
X219786Y301896D01*
X209573Y290848D01*
X203454Y277102D01*
X189327Y268946D01*
X178254Y256966D01*
X163496Y254031D01*
X150467Y246507D01*
X134243Y248212D01*
X118244Y245029D01*
X104580Y251328D01*
X89617Y252900D01*
X77493Y263816D01*
X62679Y270645D01*
X44146Y293839D01*
X42585Y296543D01*
X32694Y320420D01*
X25380Y347715D01*
X5086Y423454D01*
X1767Y445846D01*
X53Y498376D01*
X0Y501605D01*
X0Y3859309D01*
X5249500Y3859309D01*
X5249500Y3740691D01*
X5276574Y3639649D01*
X5280202Y3626110D01*
X5339507Y3523392D01*
X5339509Y3523390D01*
X5339511Y3523387D01*
X5423387Y3439511D01*
X5423392Y3439508D01*
X5473225Y3410736D01*
X5514165Y3365266D01*
X5520560Y3304416D01*
X5489967Y3251428D01*
X5473225Y3239264D01*
X5423389Y3210491D01*
X5339507Y3126609D01*
X5280202Y3023891D01*
X5280201Y3023886D01*
X5249500Y2909309D01*
X5249500Y2790691D01*
X5276574Y2689649D01*
X5280202Y2676110D01*
X5339507Y2573392D01*
X5339509Y2573390D01*
X5339511Y2573387D01*
X5423387Y2489511D01*
X5423389Y2489510D01*
X5423391Y2489508D01*
X5526110Y2430203D01*
X5526111Y2430203D01*
X5526114Y2430201D01*
X5640691Y2399500D01*
X5640693Y2399500D01*
X5759307Y2399500D01*
X5759309Y2399500D01*
X5873886Y2430201D01*
X5873888Y2430203D01*
X5873890Y2430203D01*
X5976608Y2489508D01*
X5976608Y2489509D01*
X5976613Y2489511D01*
X6007607Y2520505D01*
X6062124Y2548281D01*
X6077610Y2549500D01*
X10734521Y2549500D01*
X10792712Y2530593D01*
X10804525Y2520504D01*
X10963176Y2361853D01*
X10990953Y2307336D01*
X10981382Y2246904D01*
X10938117Y2203639D01*
X10933255Y2201398D01*
X10932406Y2200944D01*
X10760348Y2085980D01*
X10614020Y1939652D01*
X10499058Y1767598D01*
X10419869Y1576419D01*
X10379500Y1373468D01*
X10379500Y1166533D01*
X10419869Y963582D01*
X10499058Y772403D01*
X10499059Y772402D01*
X10614023Y600345D01*
X10760345Y454023D01*
X10932402Y339059D01*
X11123580Y259870D01*
X11326535Y219500D01*
X11326536Y219500D01*
X11533464Y219500D01*
X11533465Y219500D01*
X11736420Y259870D01*
X11927598Y339059D01*
X12099655Y454023D01*
X12245977Y600345D01*
X12360941Y772402D01*
X12440130Y963580D01*
X12480500Y1166535D01*
X12480500Y1373465D01*
X12440130Y1576420D01*
X12360941Y1767598D01*
X12245977Y1939655D01*
X12099655Y2085977D01*
X12081935Y2097817D01*
X11927598Y2200941D01*
X11791613Y2257269D01*
X11745088Y2297006D01*
X11730500Y2348733D01*
X11730500Y2359563D01*
X11730499Y2359565D01*
X11710021Y2435989D01*
X11710019Y2435993D01*
X11670460Y2504511D01*
X11614511Y2560461D01*
X11614511Y2560460D01*
X11084511Y3090460D01*
X11073347Y3096905D01*
X11042852Y3114512D01*
X11042851Y3114512D01*
X11015988Y3130022D01*
X10939564Y3150500D01*
X10939562Y3150500D01*
X6077610Y3150500D01*
X6019419Y3169407D01*
X6018462Y3170112D01*
X6012688Y3174414D01*
X5976613Y3210489D01*
X5921768Y3242154D01*
X5917127Y3245612D01*
X5902623Y3266087D01*
X5885834Y3284733D01*
X5885210Y3290670D01*
X5881760Y3295540D01*
X5882061Y3320626D01*
X5879438Y3345584D01*
X5882423Y3350755D01*
X5882495Y3356721D01*
X5897482Y3376838D01*
X5910031Y3398572D01*
X5917974Y3404344D01*
X5919050Y3405786D01*
X5920645Y3406284D01*
X5926775Y3410736D01*
X5976608Y3439508D01*
X5976608Y3439509D01*
X5976613Y3439511D01*
X6007607Y3470505D01*
X6062124Y3498281D01*
X6077610Y3499500D01*
X12934521Y3499500D01*
X12992712Y3480593D01*
X13004525Y3470504D01*
X13640504Y2834525D01*
X13668281Y2780008D01*
X13669500Y2764521D01*
X13669500Y2348733D01*
X13650593Y2290542D01*
X13608387Y2257269D01*
X13472401Y2200941D01*
X13300348Y2085980D01*
X13154020Y1939652D01*
X13039058Y1767598D01*
X12959869Y1576419D01*
X12919500Y1373468D01*
X12919500Y1166533D01*
X12959869Y963582D01*
X13039058Y772403D01*
X13039059Y772402D01*
X13154023Y600345D01*
X13300345Y454023D01*
X13472402Y339059D01*
X13663580Y259870D01*
X13866535Y219500D01*
X13866536Y219500D01*
X14073464Y219500D01*
X14073465Y219500D01*
X14276420Y259870D01*
X14467598Y339059D01*
X14639655Y454023D01*
X14785977Y600345D01*
X14900941Y772402D01*
X14980130Y963580D01*
X15020500Y1166535D01*
X15020500Y1373465D01*
X15020499Y1373468D01*
X15459500Y1373468D01*
X15459500Y1166533D01*
X15499869Y963582D01*
X15579058Y772403D01*
X15579059Y772402D01*
X15694023Y600345D01*
X15840345Y454023D01*
X16012402Y339059D01*
X16203580Y259870D01*
X16406535Y219500D01*
X16406536Y219500D01*
X16613464Y219500D01*
X16613465Y219500D01*
X16816420Y259870D01*
X17007598Y339059D01*
X17179655Y454023D01*
X17325977Y600345D01*
X17440941Y772402D01*
X17520130Y963580D01*
X17560500Y1166535D01*
X17560500Y1373465D01*
X17560499Y1373468D01*
X17999500Y1373468D01*
X17999500Y1166533D01*
X18039869Y963582D01*
X18119058Y772403D01*
X18119059Y772402D01*
X18234023Y600345D01*
X18380345Y454023D01*
X18552402Y339059D01*
X18743580Y259870D01*
X18946535Y219500D01*
X18946536Y219500D01*
X19153464Y219500D01*
X19153465Y219500D01*
X19356420Y259870D01*
X19547598Y339059D01*
X19719655Y454023D01*
X19865977Y600345D01*
X19980941Y772402D01*
X20060130Y963580D01*
X20100500Y1166535D01*
X20100500Y1373465D01*
X20060130Y1576420D01*
X19980941Y1767598D01*
X19865977Y1939655D01*
X19719655Y2085977D01*
X19719651Y2085980D01*
X19547597Y2200942D01*
X19356418Y2280131D01*
X19153467Y2320500D01*
X19153465Y2320500D01*
X18946535Y2320500D01*
X18946532Y2320500D01*
X18743581Y2280131D01*
X18552402Y2200942D01*
X18380348Y2085980D01*
X18234020Y1939652D01*
X18119058Y1767598D01*
X18039869Y1576419D01*
X17999500Y1373468D01*
X17560499Y1373468D01*
X17520130Y1576420D01*
X17440941Y1767598D01*
X17325977Y1939655D01*
X17179655Y2085977D01*
X17179651Y2085980D01*
X17007597Y2200942D01*
X16816418Y2280131D01*
X16613467Y2320500D01*
X16613465Y2320500D01*
X16406535Y2320500D01*
X16406532Y2320500D01*
X16203581Y2280131D01*
X16012402Y2200942D01*
X15840348Y2085980D01*
X15694020Y1939652D01*
X15579058Y1767598D01*
X15499869Y1576419D01*
X15459500Y1373468D01*
X15020499Y1373468D01*
X14980130Y1576420D01*
X14900941Y1767598D01*
X14785977Y1939655D01*
X14639655Y2085977D01*
X14621935Y2097817D01*
X14467598Y2200941D01*
X14331613Y2257269D01*
X14285088Y2297006D01*
X14270500Y2348733D01*
X14270500Y2969563D01*
X14270499Y2969565D01*
X14250021Y3045989D01*
X14250019Y3045993D01*
X14210460Y3114511D01*
X14154511Y3170461D01*
X14154511Y3170460D01*
X13284511Y4040460D01*
X13284508Y4040462D01*
X13215992Y4080020D01*
X13215988Y4080022D01*
X13139564Y4100500D01*
X13139562Y4100500D01*
X6077610Y4100500D01*
X6019419Y4119407D01*
X6007607Y4129495D01*
X5976613Y4160489D01*
X5976610Y4160491D01*
X5976609Y4160492D01*
X5976608Y4160493D01*
X5873889Y4219798D01*
X5873890Y4219798D01*
X5860351Y4223426D01*
X5759309Y4250500D01*
X5640691Y4250500D01*
X5570567Y4231711D01*
X5526109Y4219798D01*
X5423391Y4160493D01*
X5339507Y4076609D01*
X5280202Y3973891D01*
X5280201Y3973886D01*
X5249500Y3859309D01*
X0Y3859309D01*
X0Y9698396D01*
X53Y9701625D01*
X1767Y9754155D01*
X1767Y9754156D01*
X5087Y9776549D01*
X32695Y9879586D01*
X42582Y9903453D01*
X95095Y9994408D01*
X110821Y10014904D01*
X185096Y10089179D01*
X205592Y10104905D01*
X296547Y10157418D01*
X320414Y10167305D01*
X423455Y10194914D01*
X445843Y10198233D01*
X492269Y10199748D01*
X498377Y10199947D01*
X501605Y10200000D01*
X1237136Y10200000D01*
X1295327Y10181093D01*
G37*
%TD.AperFunction*%
%TD*%
M02*
