%TF.GenerationSoftware,KiCad,Pcbnew,9.0.8+dfsg-1*%
%TF.CreationDate,2026-09-27T12:04:56-04:00*%
%TF.ProjectId,lsm6dsv32x_breakout,6c736d36-6473-4763-9332-785f62726561,1.0*%
%TF.SameCoordinates,Original*%
%TF.FileFunction,Legend,Bot*%
%TF.FilePolarity,Positive*%
%FSLAX46Y46*%
G04 Gerber Fmt 4.6, Leading zero omitted, Abs format (unit mm)*
G04 Created by KiCad (PCBNEW 9.0.8+dfsg-1) date 2026-09-27 12:04:56*
%MOMM*%
%LPD*%
G01*
G04 APERTURE LIST*
%ADD10C,0.100000*%
%ADD11C,0.120000*%
%ADD12R,1.700000X1.700000*%
%ADD13C,1.700000*%
G04 APERTURE END LIST*
D10*
X10457142Y5000760D02*
X10457142Y4607903D01*
X10457142Y4607903D02*
X10478571Y4529331D01*
X10478571Y4529331D02*
X10521428Y4476950D01*
X10521428Y4476950D02*
X10585714Y4450760D01*
X10585714Y4450760D02*
X10628571Y4450760D01*
X10242857Y4450760D02*
X10242857Y5000760D01*
X10242857Y5000760D02*
X10071428Y5000760D01*
X10071428Y5000760D02*
X10028571Y4974570D01*
X10028571Y4974570D02*
X10007142Y4948379D01*
X10007142Y4948379D02*
X9985714Y4895998D01*
X9985714Y4895998D02*
X9985714Y4817427D01*
X9985714Y4817427D02*
X10007142Y4765046D01*
X10007142Y4765046D02*
X10028571Y4738855D01*
X10028571Y4738855D02*
X10071428Y4712665D01*
X10071428Y4712665D02*
X10242857Y4712665D01*
X9557142Y4450760D02*
X9814285Y4450760D01*
X9685714Y4450760D02*
X9685714Y5000760D01*
X9685714Y5000760D02*
X9728571Y4922189D01*
X9728571Y4922189D02*
X9771428Y4869808D01*
X9771428Y4869808D02*
X9814285Y4843617D01*
X8828572Y4476950D02*
X8871429Y4450760D01*
X8871429Y4450760D02*
X8957143Y4450760D01*
X8957143Y4450760D02*
X9000000Y4476950D01*
X9000000Y4476950D02*
X9021429Y4503141D01*
X9021429Y4503141D02*
X9042857Y4555522D01*
X9042857Y4555522D02*
X9042857Y4712665D01*
X9042857Y4712665D02*
X9021429Y4765046D01*
X9021429Y4765046D02*
X9000000Y4791236D01*
X9000000Y4791236D02*
X8957143Y4817427D01*
X8957143Y4817427D02*
X8871429Y4817427D01*
X8871429Y4817427D02*
X8828572Y4791236D01*
X8442858Y4817427D02*
X8442858Y4450760D01*
X8635715Y4817427D02*
X8635715Y4529331D01*
X8635715Y4529331D02*
X8614286Y4476950D01*
X8614286Y4476950D02*
X8571429Y4450760D01*
X8571429Y4450760D02*
X8507143Y4450760D01*
X8507143Y4450760D02*
X8464286Y4476950D01*
X8464286Y4476950D02*
X8442858Y4503141D01*
X8292857Y4817427D02*
X8121429Y4817427D01*
X8228572Y5000760D02*
X8228572Y4529331D01*
X8228572Y4529331D02*
X8207143Y4476950D01*
X8207143Y4476950D02*
X8164286Y4450760D01*
X8164286Y4450760D02*
X8121429Y4450760D01*
X7971429Y4503141D02*
X7950000Y4476950D01*
X7950000Y4476950D02*
X7971429Y4450760D01*
X7971429Y4450760D02*
X7992857Y4476950D01*
X7992857Y4476950D02*
X7971429Y4503141D01*
X7971429Y4503141D02*
X7971429Y4450760D01*
X7971429Y4791236D02*
X7950000Y4765046D01*
X7950000Y4765046D02*
X7971429Y4738855D01*
X7971429Y4738855D02*
X7992857Y4765046D01*
X7992857Y4765046D02*
X7971429Y4791236D01*
X7971429Y4791236D02*
X7971429Y4738855D01*
X7414286Y4817427D02*
X7414286Y4450760D01*
X7414286Y4765046D02*
X7392857Y4791236D01*
X7392857Y4791236D02*
X7350000Y4817427D01*
X7350000Y4817427D02*
X7285714Y4817427D01*
X7285714Y4817427D02*
X7242857Y4791236D01*
X7242857Y4791236D02*
X7221429Y4738855D01*
X7221429Y4738855D02*
X7221429Y4450760D01*
X6942857Y4450760D02*
X6985714Y4476950D01*
X6985714Y4476950D02*
X7007143Y4503141D01*
X7007143Y4503141D02*
X7028571Y4555522D01*
X7028571Y4555522D02*
X7028571Y4712665D01*
X7028571Y4712665D02*
X7007143Y4765046D01*
X7007143Y4765046D02*
X6985714Y4791236D01*
X6985714Y4791236D02*
X6942857Y4817427D01*
X6942857Y4817427D02*
X6878571Y4817427D01*
X6878571Y4817427D02*
X6835714Y4791236D01*
X6835714Y4791236D02*
X6814286Y4765046D01*
X6814286Y4765046D02*
X6792857Y4712665D01*
X6792857Y4712665D02*
X6792857Y4555522D01*
X6792857Y4555522D02*
X6814286Y4503141D01*
X6814286Y4503141D02*
X6835714Y4476950D01*
X6835714Y4476950D02*
X6878571Y4450760D01*
X6878571Y4450760D02*
X6942857Y4450760D01*
X6257143Y4450760D02*
X6257143Y5000760D01*
X6064285Y4948379D02*
X6042857Y4974570D01*
X6042857Y4974570D02*
X6000000Y5000760D01*
X6000000Y5000760D02*
X5892857Y5000760D01*
X5892857Y5000760D02*
X5850000Y4974570D01*
X5850000Y4974570D02*
X5828571Y4948379D01*
X5828571Y4948379D02*
X5807142Y4895998D01*
X5807142Y4895998D02*
X5807142Y4843617D01*
X5807142Y4843617D02*
X5828571Y4765046D01*
X5828571Y4765046D02*
X6085714Y4450760D01*
X6085714Y4450760D02*
X5807142Y4450760D01*
X5357143Y4503141D02*
X5378571Y4476950D01*
X5378571Y4476950D02*
X5442857Y4450760D01*
X5442857Y4450760D02*
X5485714Y4450760D01*
X5485714Y4450760D02*
X5550000Y4476950D01*
X5550000Y4476950D02*
X5592857Y4529331D01*
X5592857Y4529331D02*
X5614286Y4581712D01*
X5614286Y4581712D02*
X5635714Y4686474D01*
X5635714Y4686474D02*
X5635714Y4765046D01*
X5635714Y4765046D02*
X5614286Y4869808D01*
X5614286Y4869808D02*
X5592857Y4922189D01*
X5592857Y4922189D02*
X5550000Y4974570D01*
X5550000Y4974570D02*
X5485714Y5000760D01*
X5485714Y5000760D02*
X5442857Y5000760D01*
X5442857Y5000760D02*
X5378571Y4974570D01*
X5378571Y4974570D02*
X5357143Y4948379D01*
X4821429Y4817427D02*
X4821429Y4267427D01*
X4821429Y4791236D02*
X4778572Y4817427D01*
X4778572Y4817427D02*
X4692857Y4817427D01*
X4692857Y4817427D02*
X4650000Y4791236D01*
X4650000Y4791236D02*
X4628572Y4765046D01*
X4628572Y4765046D02*
X4607143Y4712665D01*
X4607143Y4712665D02*
X4607143Y4555522D01*
X4607143Y4555522D02*
X4628572Y4503141D01*
X4628572Y4503141D02*
X4650000Y4476950D01*
X4650000Y4476950D02*
X4692857Y4450760D01*
X4692857Y4450760D02*
X4778572Y4450760D01*
X4778572Y4450760D02*
X4821429Y4476950D01*
X4221429Y4817427D02*
X4221429Y4450760D01*
X4414286Y4817427D02*
X4414286Y4529331D01*
X4414286Y4529331D02*
X4392857Y4476950D01*
X4392857Y4476950D02*
X4350000Y4450760D01*
X4350000Y4450760D02*
X4285714Y4450760D01*
X4285714Y4450760D02*
X4242857Y4476950D01*
X4242857Y4476950D02*
X4221429Y4503141D01*
X3942857Y4450760D02*
X3985714Y4476950D01*
X3985714Y4476950D02*
X4007143Y4529331D01*
X4007143Y4529331D02*
X4007143Y5000760D01*
X3707143Y4450760D02*
X3750000Y4476950D01*
X3750000Y4476950D02*
X3771429Y4529331D01*
X3771429Y4529331D02*
X3771429Y5000760D01*
X3535715Y4660284D02*
X3192858Y4660284D01*
X2785715Y4817427D02*
X2785715Y4450760D01*
X2978572Y4817427D02*
X2978572Y4529331D01*
X2978572Y4529331D02*
X2957143Y4476950D01*
X2957143Y4476950D02*
X2914286Y4450760D01*
X2914286Y4450760D02*
X2850000Y4450760D01*
X2850000Y4450760D02*
X2807143Y4476950D01*
X2807143Y4476950D02*
X2785715Y4503141D01*
X2571429Y4817427D02*
X2571429Y4267427D01*
X2571429Y4791236D02*
X2528572Y4817427D01*
X2528572Y4817427D02*
X2442857Y4817427D01*
X2442857Y4817427D02*
X2400000Y4791236D01*
X2400000Y4791236D02*
X2378572Y4765046D01*
X2378572Y4765046D02*
X2357143Y4712665D01*
X2357143Y4712665D02*
X2357143Y4555522D01*
X2357143Y4555522D02*
X2378572Y4503141D01*
X2378572Y4503141D02*
X2400000Y4476950D01*
X2400000Y4476950D02*
X2442857Y4450760D01*
X2442857Y4450760D02*
X2528572Y4450760D01*
X2528572Y4450760D02*
X2571429Y4476950D01*
X2185714Y4476950D02*
X2142857Y4450760D01*
X2142857Y4450760D02*
X2057143Y4450760D01*
X2057143Y4450760D02*
X2014286Y4476950D01*
X2014286Y4476950D02*
X1992857Y4529331D01*
X1992857Y4529331D02*
X1992857Y4555522D01*
X1992857Y4555522D02*
X2014286Y4607903D01*
X2014286Y4607903D02*
X2057143Y4634093D01*
X2057143Y4634093D02*
X2121429Y4634093D01*
X2121429Y4634093D02*
X2164286Y4660284D01*
X2164286Y4660284D02*
X2185714Y4712665D01*
X2185714Y4712665D02*
X2185714Y4738855D01*
X2185714Y4738855D02*
X2164286Y4791236D01*
X2164286Y4791236D02*
X2121429Y4817427D01*
X2121429Y4817427D02*
X2057143Y4817427D01*
X2057143Y4817427D02*
X2014286Y4791236D01*
D11*
X1889046Y3632407D02*
X1579522Y3632407D01*
X1579522Y3632407D02*
X1746189Y3365740D01*
X1746189Y3365740D02*
X1674760Y3365740D01*
X1674760Y3365740D02*
X1627141Y3332407D01*
X1627141Y3332407D02*
X1603332Y3299074D01*
X1603332Y3299074D02*
X1579522Y3232407D01*
X1579522Y3232407D02*
X1579522Y3065740D01*
X1579522Y3065740D02*
X1603332Y2999074D01*
X1603332Y2999074D02*
X1627141Y2965740D01*
X1627141Y2965740D02*
X1674760Y2932407D01*
X1674760Y2932407D02*
X1817617Y2932407D01*
X1817617Y2932407D02*
X1865236Y2965740D01*
X1865236Y2965740D02*
X1889046Y2999074D01*
X1436665Y3632407D02*
X1269999Y2932407D01*
X1269999Y2932407D02*
X1103332Y3632407D01*
X984285Y3632407D02*
X674761Y3632407D01*
X674761Y3632407D02*
X841428Y3365740D01*
X841428Y3365740D02*
X769999Y3365740D01*
X769999Y3365740D02*
X722380Y3332407D01*
X722380Y3332407D02*
X698571Y3299074D01*
X698571Y3299074D02*
X674761Y3232407D01*
X674761Y3232407D02*
X674761Y3065740D01*
X674761Y3065740D02*
X698571Y2999074D01*
X698571Y2999074D02*
X722380Y2965740D01*
X722380Y2965740D02*
X769999Y2932407D01*
X769999Y2932407D02*
X912856Y2932407D01*
X912856Y2932407D02*
X960475Y2965740D01*
X960475Y2965740D02*
X984285Y2999074D01*
X4190952Y3599074D02*
X4238571Y3632407D01*
X4238571Y3632407D02*
X4310000Y3632407D01*
X4310000Y3632407D02*
X4381428Y3599074D01*
X4381428Y3599074D02*
X4429047Y3532407D01*
X4429047Y3532407D02*
X4452857Y3465740D01*
X4452857Y3465740D02*
X4476666Y3332407D01*
X4476666Y3332407D02*
X4476666Y3232407D01*
X4476666Y3232407D02*
X4452857Y3099074D01*
X4452857Y3099074D02*
X4429047Y3032407D01*
X4429047Y3032407D02*
X4381428Y2965740D01*
X4381428Y2965740D02*
X4310000Y2932407D01*
X4310000Y2932407D02*
X4262381Y2932407D01*
X4262381Y2932407D02*
X4190952Y2965740D01*
X4190952Y2965740D02*
X4167143Y2999074D01*
X4167143Y2999074D02*
X4167143Y3232407D01*
X4167143Y3232407D02*
X4262381Y3232407D01*
X3952857Y2932407D02*
X3952857Y3632407D01*
X3952857Y3632407D02*
X3667143Y2932407D01*
X3667143Y2932407D02*
X3667143Y3632407D01*
X3429047Y2932407D02*
X3429047Y3632407D01*
X3429047Y3632407D02*
X3309999Y3632407D01*
X3309999Y3632407D02*
X3238571Y3599074D01*
X3238571Y3599074D02*
X3190952Y3532407D01*
X3190952Y3532407D02*
X3167142Y3465740D01*
X3167142Y3465740D02*
X3143333Y3332407D01*
X3143333Y3332407D02*
X3143333Y3232407D01*
X3143333Y3232407D02*
X3167142Y3099074D01*
X3167142Y3099074D02*
X3190952Y3032407D01*
X3190952Y3032407D02*
X3238571Y2965740D01*
X3238571Y2965740D02*
X3309999Y2932407D01*
X3309999Y2932407D02*
X3429047Y2932407D01*
X7040475Y2932407D02*
X7040475Y3632407D01*
X6802380Y2932407D02*
X6802380Y3632407D01*
X6802380Y3632407D02*
X6516666Y2932407D01*
X6516666Y2932407D02*
X6516666Y3632407D01*
X6349998Y3632407D02*
X6064284Y3632407D01*
X6207141Y2932407D02*
X6207141Y3632407D01*
X5921427Y3565740D02*
X5897618Y3599074D01*
X5897618Y3599074D02*
X5849999Y3632407D01*
X5849999Y3632407D02*
X5730951Y3632407D01*
X5730951Y3632407D02*
X5683332Y3599074D01*
X5683332Y3599074D02*
X5659523Y3565740D01*
X5659523Y3565740D02*
X5635713Y3499074D01*
X5635713Y3499074D02*
X5635713Y3432407D01*
X5635713Y3432407D02*
X5659523Y3332407D01*
X5659523Y3332407D02*
X5945237Y2932407D01*
X5945237Y2932407D02*
X5635713Y2932407D01*
X8973333Y2999074D02*
X8997142Y2965740D01*
X8997142Y2965740D02*
X9068571Y2932407D01*
X9068571Y2932407D02*
X9116190Y2932407D01*
X9116190Y2932407D02*
X9187618Y2965740D01*
X9187618Y2965740D02*
X9235237Y3032407D01*
X9235237Y3032407D02*
X9259047Y3099074D01*
X9259047Y3099074D02*
X9282856Y3232407D01*
X9282856Y3232407D02*
X9282856Y3332407D01*
X9282856Y3332407D02*
X9259047Y3465740D01*
X9259047Y3465740D02*
X9235237Y3532407D01*
X9235237Y3532407D02*
X9187618Y3599074D01*
X9187618Y3599074D02*
X9116190Y3632407D01*
X9116190Y3632407D02*
X9068571Y3632407D01*
X9068571Y3632407D02*
X8997142Y3599074D01*
X8997142Y3599074D02*
X8973333Y3565740D01*
X8782856Y2965740D02*
X8711428Y2932407D01*
X8711428Y2932407D02*
X8592380Y2932407D01*
X8592380Y2932407D02*
X8544761Y2965740D01*
X8544761Y2965740D02*
X8520952Y2999074D01*
X8520952Y2999074D02*
X8497142Y3065740D01*
X8497142Y3065740D02*
X8497142Y3132407D01*
X8497142Y3132407D02*
X8520952Y3199074D01*
X8520952Y3199074D02*
X8544761Y3232407D01*
X8544761Y3232407D02*
X8592380Y3265740D01*
X8592380Y3265740D02*
X8687618Y3299074D01*
X8687618Y3299074D02*
X8735237Y3332407D01*
X8735237Y3332407D02*
X8759047Y3365740D01*
X8759047Y3365740D02*
X8782856Y3432407D01*
X8782856Y3432407D02*
X8782856Y3499074D01*
X8782856Y3499074D02*
X8759047Y3565740D01*
X8759047Y3565740D02*
X8735237Y3599074D01*
X8735237Y3599074D02*
X8687618Y3632407D01*
X8687618Y3632407D02*
X8568571Y3632407D01*
X8568571Y3632407D02*
X8497142Y3599074D01*
X12025237Y2965740D02*
X11953809Y2932407D01*
X11953809Y2932407D02*
X11834761Y2932407D01*
X11834761Y2932407D02*
X11787142Y2965740D01*
X11787142Y2965740D02*
X11763333Y2999074D01*
X11763333Y2999074D02*
X11739523Y3065740D01*
X11739523Y3065740D02*
X11739523Y3132407D01*
X11739523Y3132407D02*
X11763333Y3199074D01*
X11763333Y3199074D02*
X11787142Y3232407D01*
X11787142Y3232407D02*
X11834761Y3265740D01*
X11834761Y3265740D02*
X11929999Y3299074D01*
X11929999Y3299074D02*
X11977618Y3332407D01*
X11977618Y3332407D02*
X12001428Y3365740D01*
X12001428Y3365740D02*
X12025237Y3432407D01*
X12025237Y3432407D02*
X12025237Y3499074D01*
X12025237Y3499074D02*
X12001428Y3565740D01*
X12001428Y3565740D02*
X11977618Y3599074D01*
X11977618Y3599074D02*
X11929999Y3632407D01*
X11929999Y3632407D02*
X11810952Y3632407D01*
X11810952Y3632407D02*
X11739523Y3599074D01*
X11239524Y2999074D02*
X11263333Y2965740D01*
X11263333Y2965740D02*
X11334762Y2932407D01*
X11334762Y2932407D02*
X11382381Y2932407D01*
X11382381Y2932407D02*
X11453809Y2965740D01*
X11453809Y2965740D02*
X11501428Y3032407D01*
X11501428Y3032407D02*
X11525238Y3099074D01*
X11525238Y3099074D02*
X11549047Y3232407D01*
X11549047Y3232407D02*
X11549047Y3332407D01*
X11549047Y3332407D02*
X11525238Y3465740D01*
X11525238Y3465740D02*
X11501428Y3532407D01*
X11501428Y3532407D02*
X11453809Y3599074D01*
X11453809Y3599074D02*
X11382381Y3632407D01*
X11382381Y3632407D02*
X11334762Y3632407D01*
X11334762Y3632407D02*
X11263333Y3599074D01*
X11263333Y3599074D02*
X11239524Y3565740D01*
X10787143Y2932407D02*
X11025238Y2932407D01*
X11025238Y2932407D02*
X11025238Y3632407D01*
X14577141Y2965740D02*
X14505713Y2932407D01*
X14505713Y2932407D02*
X14386665Y2932407D01*
X14386665Y2932407D02*
X14339046Y2965740D01*
X14339046Y2965740D02*
X14315237Y2999074D01*
X14315237Y2999074D02*
X14291427Y3065740D01*
X14291427Y3065740D02*
X14291427Y3132407D01*
X14291427Y3132407D02*
X14315237Y3199074D01*
X14315237Y3199074D02*
X14339046Y3232407D01*
X14339046Y3232407D02*
X14386665Y3265740D01*
X14386665Y3265740D02*
X14481903Y3299074D01*
X14481903Y3299074D02*
X14529522Y3332407D01*
X14529522Y3332407D02*
X14553332Y3365740D01*
X14553332Y3365740D02*
X14577141Y3432407D01*
X14577141Y3432407D02*
X14577141Y3499074D01*
X14577141Y3499074D02*
X14553332Y3565740D01*
X14553332Y3565740D02*
X14529522Y3599074D01*
X14529522Y3599074D02*
X14481903Y3632407D01*
X14481903Y3632407D02*
X14362856Y3632407D01*
X14362856Y3632407D02*
X14291427Y3599074D01*
X14077142Y2932407D02*
X14077142Y3632407D01*
X14077142Y3632407D02*
X13958094Y3632407D01*
X13958094Y3632407D02*
X13886666Y3599074D01*
X13886666Y3599074D02*
X13839047Y3532407D01*
X13839047Y3532407D02*
X13815237Y3465740D01*
X13815237Y3465740D02*
X13791428Y3332407D01*
X13791428Y3332407D02*
X13791428Y3232407D01*
X13791428Y3232407D02*
X13815237Y3099074D01*
X13815237Y3099074D02*
X13839047Y3032407D01*
X13839047Y3032407D02*
X13886666Y2965740D01*
X13886666Y2965740D02*
X13958094Y2932407D01*
X13958094Y2932407D02*
X14077142Y2932407D01*
X13600951Y3132407D02*
X13362856Y3132407D01*
X13648570Y2932407D02*
X13481904Y3632407D01*
X13481904Y3632407D02*
X13315237Y2932407D01*
X17164761Y2965740D02*
X17093333Y2932407D01*
X17093333Y2932407D02*
X16974285Y2932407D01*
X16974285Y2932407D02*
X16926666Y2965740D01*
X16926666Y2965740D02*
X16902857Y2999074D01*
X16902857Y2999074D02*
X16879047Y3065740D01*
X16879047Y3065740D02*
X16879047Y3132407D01*
X16879047Y3132407D02*
X16902857Y3199074D01*
X16902857Y3199074D02*
X16926666Y3232407D01*
X16926666Y3232407D02*
X16974285Y3265740D01*
X16974285Y3265740D02*
X17069523Y3299074D01*
X17069523Y3299074D02*
X17117142Y3332407D01*
X17117142Y3332407D02*
X17140952Y3365740D01*
X17140952Y3365740D02*
X17164761Y3432407D01*
X17164761Y3432407D02*
X17164761Y3499074D01*
X17164761Y3499074D02*
X17140952Y3565740D01*
X17140952Y3565740D02*
X17117142Y3599074D01*
X17117142Y3599074D02*
X17069523Y3632407D01*
X17069523Y3632407D02*
X16950476Y3632407D01*
X16950476Y3632407D02*
X16879047Y3599074D01*
X16664762Y2932407D02*
X16664762Y3632407D01*
X16664762Y3632407D02*
X16545714Y3632407D01*
X16545714Y3632407D02*
X16474286Y3599074D01*
X16474286Y3599074D02*
X16426667Y3532407D01*
X16426667Y3532407D02*
X16402857Y3465740D01*
X16402857Y3465740D02*
X16379048Y3332407D01*
X16379048Y3332407D02*
X16379048Y3232407D01*
X16379048Y3232407D02*
X16402857Y3099074D01*
X16402857Y3099074D02*
X16426667Y3032407D01*
X16426667Y3032407D02*
X16474286Y2965740D01*
X16474286Y2965740D02*
X16545714Y2932407D01*
X16545714Y2932407D02*
X16664762Y2932407D01*
X16069524Y3632407D02*
X15974286Y3632407D01*
X15974286Y3632407D02*
X15926667Y3599074D01*
X15926667Y3599074D02*
X15879048Y3532407D01*
X15879048Y3532407D02*
X15855238Y3399074D01*
X15855238Y3399074D02*
X15855238Y3165740D01*
X15855238Y3165740D02*
X15879048Y3032407D01*
X15879048Y3032407D02*
X15926667Y2965740D01*
X15926667Y2965740D02*
X15974286Y2932407D01*
X15974286Y2932407D02*
X16069524Y2932407D01*
X16069524Y2932407D02*
X16117143Y2965740D01*
X16117143Y2965740D02*
X16164762Y3032407D01*
X16164762Y3032407D02*
X16188571Y3165740D01*
X16188571Y3165740D02*
X16188571Y3399074D01*
X16188571Y3399074D02*
X16164762Y3532407D01*
X16164762Y3532407D02*
X16117143Y3599074D01*
X16117143Y3599074D02*
X16069524Y3632407D01*
X19607141Y5682407D02*
X19607141Y6382407D01*
X19392855Y6315740D02*
X19369046Y6349074D01*
X19369046Y6349074D02*
X19321427Y6382407D01*
X19321427Y6382407D02*
X19202379Y6382407D01*
X19202379Y6382407D02*
X19154760Y6349074D01*
X19154760Y6349074D02*
X19130951Y6315740D01*
X19130951Y6315740D02*
X19107141Y6249074D01*
X19107141Y6249074D02*
X19107141Y6182407D01*
X19107141Y6182407D02*
X19130951Y6082407D01*
X19130951Y6082407D02*
X19416665Y5682407D01*
X19416665Y5682407D02*
X19107141Y5682407D01*
X18607142Y5749074D02*
X18630951Y5715740D01*
X18630951Y5715740D02*
X18702380Y5682407D01*
X18702380Y5682407D02*
X18749999Y5682407D01*
X18749999Y5682407D02*
X18821427Y5715740D01*
X18821427Y5715740D02*
X18869046Y5782407D01*
X18869046Y5782407D02*
X18892856Y5849074D01*
X18892856Y5849074D02*
X18916665Y5982407D01*
X18916665Y5982407D02*
X18916665Y6082407D01*
X18916665Y6082407D02*
X18892856Y6215740D01*
X18892856Y6215740D02*
X18869046Y6282407D01*
X18869046Y6282407D02*
X18821427Y6349074D01*
X18821427Y6349074D02*
X18749999Y6382407D01*
X18749999Y6382407D02*
X18702380Y6382407D01*
X18702380Y6382407D02*
X18630951Y6349074D01*
X18630951Y6349074D02*
X18607142Y6315740D01*
X17916666Y6382407D02*
X17869047Y6382407D01*
X17869047Y6382407D02*
X17821428Y6349074D01*
X17821428Y6349074D02*
X17797618Y6315740D01*
X17797618Y6315740D02*
X17773809Y6249074D01*
X17773809Y6249074D02*
X17749999Y6115740D01*
X17749999Y6115740D02*
X17749999Y5949074D01*
X17749999Y5949074D02*
X17773809Y5815740D01*
X17773809Y5815740D02*
X17797618Y5749074D01*
X17797618Y5749074D02*
X17821428Y5715740D01*
X17821428Y5715740D02*
X17869047Y5682407D01*
X17869047Y5682407D02*
X17916666Y5682407D01*
X17916666Y5682407D02*
X17964285Y5715740D01*
X17964285Y5715740D02*
X17988094Y5749074D01*
X17988094Y5749074D02*
X18011904Y5815740D01*
X18011904Y5815740D02*
X18035713Y5949074D01*
X18035713Y5949074D02*
X18035713Y6115740D01*
X18035713Y6115740D02*
X18011904Y6249074D01*
X18011904Y6249074D02*
X17988094Y6315740D01*
X17988094Y6315740D02*
X17964285Y6349074D01*
X17964285Y6349074D02*
X17916666Y6382407D01*
X17583333Y5682407D02*
X17321428Y6149074D01*
X17583333Y6149074D02*
X17321428Y5682407D01*
X16916666Y6382407D02*
X17011904Y6382407D01*
X17011904Y6382407D02*
X17059523Y6349074D01*
X17059523Y6349074D02*
X17083333Y6315740D01*
X17083333Y6315740D02*
X17130952Y6215740D01*
X17130952Y6215740D02*
X17154761Y6082407D01*
X17154761Y6082407D02*
X17154761Y5815740D01*
X17154761Y5815740D02*
X17130952Y5749074D01*
X17130952Y5749074D02*
X17107142Y5715740D01*
X17107142Y5715740D02*
X17059523Y5682407D01*
X17059523Y5682407D02*
X16964285Y5682407D01*
X16964285Y5682407D02*
X16916666Y5715740D01*
X16916666Y5715740D02*
X16892857Y5749074D01*
X16892857Y5749074D02*
X16869047Y5815740D01*
X16869047Y5815740D02*
X16869047Y5982407D01*
X16869047Y5982407D02*
X16892857Y6049074D01*
X16892857Y6049074D02*
X16916666Y6082407D01*
X16916666Y6082407D02*
X16964285Y6115740D01*
X16964285Y6115740D02*
X17059523Y6115740D01*
X17059523Y6115740D02*
X17107142Y6082407D01*
X17107142Y6082407D02*
X17130952Y6049074D01*
X17130952Y6049074D02*
X17154761Y5982407D01*
X16488095Y6049074D02*
X16416667Y6015740D01*
X16416667Y6015740D02*
X16392857Y5982407D01*
X16392857Y5982407D02*
X16369048Y5915740D01*
X16369048Y5915740D02*
X16369048Y5815740D01*
X16369048Y5815740D02*
X16392857Y5749074D01*
X16392857Y5749074D02*
X16416667Y5715740D01*
X16416667Y5715740D02*
X16464286Y5682407D01*
X16464286Y5682407D02*
X16654762Y5682407D01*
X16654762Y5682407D02*
X16654762Y6382407D01*
X16654762Y6382407D02*
X16488095Y6382407D01*
X16488095Y6382407D02*
X16440476Y6349074D01*
X16440476Y6349074D02*
X16416667Y6315740D01*
X16416667Y6315740D02*
X16392857Y6249074D01*
X16392857Y6249074D02*
X16392857Y6182407D01*
X16392857Y6182407D02*
X16416667Y6115740D01*
X16416667Y6115740D02*
X16440476Y6082407D01*
X16440476Y6082407D02*
X16488095Y6049074D01*
X16488095Y6049074D02*
X16654762Y6049074D01*
X19740475Y2932407D02*
X19740475Y3632407D01*
X19502380Y2932407D02*
X19502380Y3632407D01*
X19502380Y3632407D02*
X19216666Y2932407D01*
X19216666Y2932407D02*
X19216666Y3632407D01*
X19049998Y3632407D02*
X18764284Y3632407D01*
X18907141Y2932407D02*
X18907141Y3632407D01*
X18335713Y2932407D02*
X18621427Y2932407D01*
X18478570Y2932407D02*
X18478570Y3632407D01*
X18478570Y3632407D02*
X18526189Y3532407D01*
X18526189Y3532407D02*
X18573808Y3465740D01*
X18573808Y3465740D02*
X18621427Y3432407D01*
X5826191Y5636145D02*
X6088096Y5636145D01*
X6088096Y5636145D02*
X6088096Y6436145D01*
X5669049Y5674240D02*
X5590477Y5636145D01*
X5590477Y5636145D02*
X5459525Y5636145D01*
X5459525Y5636145D02*
X5407144Y5674240D01*
X5407144Y5674240D02*
X5380953Y5712336D01*
X5380953Y5712336D02*
X5354763Y5788526D01*
X5354763Y5788526D02*
X5354763Y5864717D01*
X5354763Y5864717D02*
X5380953Y5940907D01*
X5380953Y5940907D02*
X5407144Y5979002D01*
X5407144Y5979002D02*
X5459525Y6017098D01*
X5459525Y6017098D02*
X5564287Y6055193D01*
X5564287Y6055193D02*
X5616668Y6093288D01*
X5616668Y6093288D02*
X5642858Y6131383D01*
X5642858Y6131383D02*
X5669049Y6207574D01*
X5669049Y6207574D02*
X5669049Y6283764D01*
X5669049Y6283764D02*
X5642858Y6359955D01*
X5642858Y6359955D02*
X5616668Y6398050D01*
X5616668Y6398050D02*
X5564287Y6436145D01*
X5564287Y6436145D02*
X5433334Y6436145D01*
X5433334Y6436145D02*
X5354763Y6398050D01*
X5119048Y5636145D02*
X5119048Y6436145D01*
X5119048Y6436145D02*
X4935715Y5864717D01*
X4935715Y5864717D02*
X4752381Y6436145D01*
X4752381Y6436145D02*
X4752381Y5636145D01*
X4254763Y6436145D02*
X4359525Y6436145D01*
X4359525Y6436145D02*
X4411906Y6398050D01*
X4411906Y6398050D02*
X4438096Y6359955D01*
X4438096Y6359955D02*
X4490477Y6245669D01*
X4490477Y6245669D02*
X4516668Y6093288D01*
X4516668Y6093288D02*
X4516668Y5788526D01*
X4516668Y5788526D02*
X4490477Y5712336D01*
X4490477Y5712336D02*
X4464287Y5674240D01*
X4464287Y5674240D02*
X4411906Y5636145D01*
X4411906Y5636145D02*
X4307144Y5636145D01*
X4307144Y5636145D02*
X4254763Y5674240D01*
X4254763Y5674240D02*
X4228572Y5712336D01*
X4228572Y5712336D02*
X4202382Y5788526D01*
X4202382Y5788526D02*
X4202382Y5979002D01*
X4202382Y5979002D02*
X4228572Y6055193D01*
X4228572Y6055193D02*
X4254763Y6093288D01*
X4254763Y6093288D02*
X4307144Y6131383D01*
X4307144Y6131383D02*
X4411906Y6131383D01*
X4411906Y6131383D02*
X4464287Y6093288D01*
X4464287Y6093288D02*
X4490477Y6055193D01*
X4490477Y6055193D02*
X4516668Y5979002D01*
X3966667Y5636145D02*
X3966667Y6436145D01*
X3966667Y6436145D02*
X3835715Y6436145D01*
X3835715Y6436145D02*
X3757143Y6398050D01*
X3757143Y6398050D02*
X3704762Y6321860D01*
X3704762Y6321860D02*
X3678572Y6245669D01*
X3678572Y6245669D02*
X3652381Y6093288D01*
X3652381Y6093288D02*
X3652381Y5979002D01*
X3652381Y5979002D02*
X3678572Y5826621D01*
X3678572Y5826621D02*
X3704762Y5750431D01*
X3704762Y5750431D02*
X3757143Y5674240D01*
X3757143Y5674240D02*
X3835715Y5636145D01*
X3835715Y5636145D02*
X3966667Y5636145D01*
X3442858Y5674240D02*
X3364286Y5636145D01*
X3364286Y5636145D02*
X3233334Y5636145D01*
X3233334Y5636145D02*
X3180953Y5674240D01*
X3180953Y5674240D02*
X3154762Y5712336D01*
X3154762Y5712336D02*
X3128572Y5788526D01*
X3128572Y5788526D02*
X3128572Y5864717D01*
X3128572Y5864717D02*
X3154762Y5940907D01*
X3154762Y5940907D02*
X3180953Y5979002D01*
X3180953Y5979002D02*
X3233334Y6017098D01*
X3233334Y6017098D02*
X3338096Y6055193D01*
X3338096Y6055193D02*
X3390477Y6093288D01*
X3390477Y6093288D02*
X3416667Y6131383D01*
X3416667Y6131383D02*
X3442858Y6207574D01*
X3442858Y6207574D02*
X3442858Y6283764D01*
X3442858Y6283764D02*
X3416667Y6359955D01*
X3416667Y6359955D02*
X3390477Y6398050D01*
X3390477Y6398050D02*
X3338096Y6436145D01*
X3338096Y6436145D02*
X3207143Y6436145D01*
X3207143Y6436145D02*
X3128572Y6398050D01*
X2971429Y6436145D02*
X2788095Y5636145D01*
X2788095Y5636145D02*
X2604762Y6436145D01*
X2473809Y6436145D02*
X2133333Y6436145D01*
X2133333Y6436145D02*
X2316666Y6131383D01*
X2316666Y6131383D02*
X2238095Y6131383D01*
X2238095Y6131383D02*
X2185714Y6093288D01*
X2185714Y6093288D02*
X2159523Y6055193D01*
X2159523Y6055193D02*
X2133333Y5979002D01*
X2133333Y5979002D02*
X2133333Y5788526D01*
X2133333Y5788526D02*
X2159523Y5712336D01*
X2159523Y5712336D02*
X2185714Y5674240D01*
X2185714Y5674240D02*
X2238095Y5636145D01*
X2238095Y5636145D02*
X2395238Y5636145D01*
X2395238Y5636145D02*
X2447619Y5674240D01*
X2447619Y5674240D02*
X2473809Y5712336D01*
X1923809Y6359955D02*
X1897618Y6398050D01*
X1897618Y6398050D02*
X1845237Y6436145D01*
X1845237Y6436145D02*
X1714285Y6436145D01*
X1714285Y6436145D02*
X1661904Y6398050D01*
X1661904Y6398050D02*
X1635713Y6359955D01*
X1635713Y6359955D02*
X1609523Y6283764D01*
X1609523Y6283764D02*
X1609523Y6207574D01*
X1609523Y6207574D02*
X1635713Y6093288D01*
X1635713Y6093288D02*
X1949999Y5636145D01*
X1949999Y5636145D02*
X1609523Y5636145D01*
X1426189Y6436145D02*
X1059522Y5636145D01*
X1059522Y6436145D02*
X1426189Y5636145D01*
%LPC*%
D12*
%TO.C,J1*%
X1270000Y1270000D03*
D13*
X3810000Y1270000D03*
X6350000Y1270000D03*
X8890000Y1270000D03*
X11430000Y1270000D03*
X13970000Y1270000D03*
X16510000Y1270000D03*
X19050000Y1270000D03*
%TD*%
%LPD*%
M02*
