%TF.GenerationSoftware,KiCad,Pcbnew,9.0.8+dfsg-1*%
%TF.CreationDate,2026-09-27T12:25:28-04:00*%
%TF.ProjectId,lsm6dsv32x_breakout,6c736d36-6473-4763-9332-785f62726561,1.0*%
%TF.SameCoordinates,Original*%
%TF.FileFunction,Legend,Top*%
%TF.FilePolarity,Positive*%
%FSLAX46Y46*%
G04 Gerber Fmt 4.6, Leading zero omitted, Abs format (unit mm)*
G04 Created by KiCad (PCBNEW 9.0.8+dfsg-1) date 2026-09-27 12:25:28*
%MOMM*%
%LPD*%
G01*
G04 APERTURE LIST*
G04 Aperture macros list*
%AMRoundRect*
0 Rectangle with rounded corners*
0 $1 Rounding radius*
0 $2 $3 $4 $5 $6 $7 $8 $9 X,Y pos of 4 corners*
0 Add a 4 corners polygon primitive as box body*
4,1,4,$2,$3,$4,$5,$6,$7,$8,$9,$2,$3,0*
0 Add four circle primitives for the rounded corners*
1,1,$1+$1,$2,$3*
1,1,$1+$1,$4,$5*
1,1,$1+$1,$6,$7*
1,1,$1+$1,$8,$9*
0 Add four rect primitives between the rounded corners*
20,1,$1+$1,$2,$3,$4,$5,0*
20,1,$1+$1,$4,$5,$6,$7,0*
20,1,$1+$1,$6,$7,$8,$9,0*
20,1,$1+$1,$8,$9,$2,$3,0*%
%AMFreePoly0*
4,1,23,0.500000,-0.750000,0.000000,-0.750000,0.000000,-0.745722,-0.065263,-0.745722,-0.191342,-0.711940,-0.304381,-0.646677,-0.396677,-0.554381,-0.461940,-0.441342,-0.495722,-0.315263,-0.495722,-0.250000,-0.500000,-0.250000,-0.500000,0.250000,-0.495722,0.250000,-0.495722,0.315263,-0.461940,0.441342,-0.396677,0.554381,-0.304381,0.646677,-0.191342,0.711940,-0.065263,0.745722,0.000000,0.745722,
0.000000,0.750000,0.500000,0.750000,0.500000,-0.750000,0.500000,-0.750000,$1*%
%AMFreePoly1*
4,1,23,0.000000,0.745722,0.065263,0.745722,0.191342,0.711940,0.304381,0.646677,0.396677,0.554381,0.461940,0.441342,0.495722,0.315263,0.495722,0.250000,0.500000,0.250000,0.500000,-0.250000,0.495722,-0.250000,0.495722,-0.315263,0.461940,-0.441342,0.396677,-0.554381,0.304381,-0.646677,0.191342,-0.711940,0.065263,-0.745722,0.000000,-0.745722,0.000000,-0.750000,-0.500000,-0.750000,
-0.500000,0.750000,0.000000,0.750000,0.000000,0.745722,0.000000,0.745722,$1*%
G04 Aperture macros list end*
%ADD10C,0.000000*%
%ADD11C,0.160000*%
%ADD12C,0.100000*%
%ADD13C,0.120000*%
%ADD14RoundRect,0.135000X-0.135000X-0.185000X0.135000X-0.185000X0.135000X0.185000X-0.135000X0.185000X0*%
%ADD15C,2.200000*%
%ADD16FreePoly0,270.000000*%
%ADD17FreePoly1,270.000000*%
%ADD18RoundRect,0.087500X0.225000X0.087500X-0.225000X0.087500X-0.225000X-0.087500X0.225000X-0.087500X0*%
%ADD19RoundRect,0.087500X0.087500X0.225000X-0.087500X0.225000X-0.087500X-0.225000X0.087500X-0.225000X0*%
%ADD20RoundRect,0.140000X-0.140000X-0.170000X0.140000X-0.170000X0.140000X0.170000X-0.140000X0.170000X0*%
%ADD21RoundRect,0.140000X0.140000X0.170000X-0.140000X0.170000X-0.140000X-0.170000X0.140000X-0.170000X0*%
%ADD22R,1.700000X1.700000*%
%ADD23C,1.700000*%
G04 APERTURE END LIST*
D10*
G36*
X13200000Y9260000D02*
G01*
X14000000Y9260000D01*
X14000000Y9140000D01*
X13200000Y9140000D01*
X13200000Y9007500D01*
X12850000Y9200000D01*
X13200000Y9392500D01*
X13200000Y9260000D01*
G37*
G36*
X14460000Y7950000D02*
G01*
X14592500Y7950000D01*
X14400000Y7600000D01*
X14207500Y7950000D01*
X14340000Y7950000D01*
X14340000Y8800000D01*
X14460000Y8800000D01*
X14460000Y7950000D01*
G37*
D11*
X13330000Y3450000D02*
G75*
G02*
X13170000Y3450000I-80000J0D01*
G01*
X13170000Y3450000D02*
G75*
G02*
X13330000Y3450000I80000J0D01*
G01*
D12*
X14470000Y9200000D02*
G75*
G02*
X14330000Y9200000I-70000J0D01*
G01*
X14330000Y9200000D02*
G75*
G02*
X14470000Y9200000I70000J0D01*
G01*
X14650000Y9200000D02*
G75*
G02*
X14150000Y9200000I-250000J0D01*
G01*
X14150000Y9200000D02*
G75*
G02*
X14650000Y9200000I250000J0D01*
G01*
X12283333Y9500760D02*
X12616666Y8950760D01*
X12616666Y9500760D02*
X12283333Y8950760D01*
X14900000Y7912665D02*
X14900000Y7650760D01*
X14733334Y8200760D02*
X14900000Y7912665D01*
X14900000Y7912665D02*
X15066667Y8200760D01*
D13*
X5771427Y8436145D02*
X5485713Y8436145D01*
X5485713Y8436145D02*
X5485713Y9236145D01*
X5942855Y8474240D02*
X6028570Y8436145D01*
X6028570Y8436145D02*
X6171427Y8436145D01*
X6171427Y8436145D02*
X6228570Y8474240D01*
X6228570Y8474240D02*
X6257141Y8512336D01*
X6257141Y8512336D02*
X6285712Y8588526D01*
X6285712Y8588526D02*
X6285712Y8664717D01*
X6285712Y8664717D02*
X6257141Y8740907D01*
X6257141Y8740907D02*
X6228570Y8779002D01*
X6228570Y8779002D02*
X6171427Y8817098D01*
X6171427Y8817098D02*
X6057141Y8855193D01*
X6057141Y8855193D02*
X5999998Y8893288D01*
X5999998Y8893288D02*
X5971427Y8931383D01*
X5971427Y8931383D02*
X5942855Y9007574D01*
X5942855Y9007574D02*
X5942855Y9083764D01*
X5942855Y9083764D02*
X5971427Y9159955D01*
X5971427Y9159955D02*
X5999998Y9198050D01*
X5999998Y9198050D02*
X6057141Y9236145D01*
X6057141Y9236145D02*
X6199998Y9236145D01*
X6199998Y9236145D02*
X6285712Y9198050D01*
X6542856Y8436145D02*
X6542856Y9236145D01*
X6542856Y9236145D02*
X6742856Y8664717D01*
X6742856Y8664717D02*
X6942856Y9236145D01*
X6942856Y9236145D02*
X6942856Y8436145D01*
X7485713Y9236145D02*
X7371427Y9236145D01*
X7371427Y9236145D02*
X7314284Y9198050D01*
X7314284Y9198050D02*
X7285713Y9159955D01*
X7285713Y9159955D02*
X7228570Y9045669D01*
X7228570Y9045669D02*
X7199998Y8893288D01*
X7199998Y8893288D02*
X7199998Y8588526D01*
X7199998Y8588526D02*
X7228570Y8512336D01*
X7228570Y8512336D02*
X7257141Y8474240D01*
X7257141Y8474240D02*
X7314284Y8436145D01*
X7314284Y8436145D02*
X7428570Y8436145D01*
X7428570Y8436145D02*
X7485713Y8474240D01*
X7485713Y8474240D02*
X7514284Y8512336D01*
X7514284Y8512336D02*
X7542855Y8588526D01*
X7542855Y8588526D02*
X7542855Y8779002D01*
X7542855Y8779002D02*
X7514284Y8855193D01*
X7514284Y8855193D02*
X7485713Y8893288D01*
X7485713Y8893288D02*
X7428570Y8931383D01*
X7428570Y8931383D02*
X7314284Y8931383D01*
X7314284Y8931383D02*
X7257141Y8893288D01*
X7257141Y8893288D02*
X7228570Y8855193D01*
X7228570Y8855193D02*
X7199998Y8779002D01*
X7799999Y8436145D02*
X7799999Y9236145D01*
X7799999Y9236145D02*
X7942856Y9236145D01*
X7942856Y9236145D02*
X8028570Y9198050D01*
X8028570Y9198050D02*
X8085713Y9121860D01*
X8085713Y9121860D02*
X8114284Y9045669D01*
X8114284Y9045669D02*
X8142856Y8893288D01*
X8142856Y8893288D02*
X8142856Y8779002D01*
X8142856Y8779002D02*
X8114284Y8626621D01*
X8114284Y8626621D02*
X8085713Y8550431D01*
X8085713Y8550431D02*
X8028570Y8474240D01*
X8028570Y8474240D02*
X7942856Y8436145D01*
X7942856Y8436145D02*
X7799999Y8436145D01*
X8371427Y8474240D02*
X8457142Y8436145D01*
X8457142Y8436145D02*
X8599999Y8436145D01*
X8599999Y8436145D02*
X8657142Y8474240D01*
X8657142Y8474240D02*
X8685713Y8512336D01*
X8685713Y8512336D02*
X8714284Y8588526D01*
X8714284Y8588526D02*
X8714284Y8664717D01*
X8714284Y8664717D02*
X8685713Y8740907D01*
X8685713Y8740907D02*
X8657142Y8779002D01*
X8657142Y8779002D02*
X8599999Y8817098D01*
X8599999Y8817098D02*
X8485713Y8855193D01*
X8485713Y8855193D02*
X8428570Y8893288D01*
X8428570Y8893288D02*
X8399999Y8931383D01*
X8399999Y8931383D02*
X8371427Y9007574D01*
X8371427Y9007574D02*
X8371427Y9083764D01*
X8371427Y9083764D02*
X8399999Y9159955D01*
X8399999Y9159955D02*
X8428570Y9198050D01*
X8428570Y9198050D02*
X8485713Y9236145D01*
X8485713Y9236145D02*
X8628570Y9236145D01*
X8628570Y9236145D02*
X8714284Y9198050D01*
X8885713Y9236145D02*
X9085713Y8436145D01*
X9085713Y8436145D02*
X9285713Y9236145D01*
X9428571Y9236145D02*
X9799999Y9236145D01*
X9799999Y9236145D02*
X9599999Y8931383D01*
X9599999Y8931383D02*
X9685714Y8931383D01*
X9685714Y8931383D02*
X9742857Y8893288D01*
X9742857Y8893288D02*
X9771428Y8855193D01*
X9771428Y8855193D02*
X9799999Y8779002D01*
X9799999Y8779002D02*
X9799999Y8588526D01*
X9799999Y8588526D02*
X9771428Y8512336D01*
X9771428Y8512336D02*
X9742857Y8474240D01*
X9742857Y8474240D02*
X9685714Y8436145D01*
X9685714Y8436145D02*
X9514285Y8436145D01*
X9514285Y8436145D02*
X9457142Y8474240D01*
X9457142Y8474240D02*
X9428571Y8512336D01*
X10028571Y9159955D02*
X10057143Y9198050D01*
X10057143Y9198050D02*
X10114286Y9236145D01*
X10114286Y9236145D02*
X10257143Y9236145D01*
X10257143Y9236145D02*
X10314286Y9198050D01*
X10314286Y9198050D02*
X10342857Y9159955D01*
X10342857Y9159955D02*
X10371428Y9083764D01*
X10371428Y9083764D02*
X10371428Y9007574D01*
X10371428Y9007574D02*
X10342857Y8893288D01*
X10342857Y8893288D02*
X10000000Y8436145D01*
X10000000Y8436145D02*
X10371428Y8436145D01*
X10571429Y9236145D02*
X10971429Y8436145D01*
X10971429Y9236145D02*
X10571429Y8436145D01*
%LPC*%
%TO.C,JP1*%
G36*
X2950000Y4250000D02*
G01*
X1450000Y4250000D01*
X1450000Y3950000D01*
X2950000Y3950000D01*
X2950000Y4250000D01*
G37*
%TD*%
D14*
%TO.C,R2*%
X3890000Y3800000D03*
X4910000Y3800000D03*
%TD*%
D15*
%TO.C,H1*%
X2300000Y8300000D03*
%TD*%
D16*
%TO.C,JP1*%
X2200000Y4750000D03*
D17*
X2200000Y3450000D03*
%TD*%
D18*
%TO.C,U1*%
X12592500Y3950000D03*
X12592500Y4450000D03*
X12592500Y4950000D03*
X12592500Y5450000D03*
D19*
X11930000Y5612500D03*
X11430000Y5612500D03*
X10930000Y5612500D03*
D18*
X10267500Y5450000D03*
X10267500Y4950000D03*
X10267500Y4450000D03*
X10267500Y3950000D03*
D19*
X10930000Y3787500D03*
X11430000Y3787500D03*
X11930000Y3787500D03*
%TD*%
D14*
%TO.C,R1*%
X3890000Y2850000D03*
X4910000Y2850000D03*
%TD*%
%TO.C,R3*%
X15490000Y4700000D03*
X16510000Y4700000D03*
%TD*%
D20*
%TO.C,C3*%
X5720000Y6300000D03*
X6680000Y6300000D03*
%TD*%
D15*
%TO.C,H2*%
X18020000Y8300000D03*
%TD*%
D20*
%TO.C,C1*%
X13720000Y6300000D03*
X14680000Y6300000D03*
%TD*%
D21*
%TO.C,C2*%
X9080000Y6300000D03*
X8120000Y6300000D03*
%TD*%
D22*
%TO.C,J1*%
X1270000Y1270000D03*
D23*
X3810000Y1270000D03*
X6350000Y1270000D03*
X8890000Y1270000D03*
X11430000Y1270000D03*
X13970000Y1270000D03*
X16510000Y1270000D03*
X19050000Y1270000D03*
%TD*%
%LPD*%
M02*
